{
.appVersion = "1342";
DisplayStrings = (
A,
B,
C,
M,
N,
O,
Z,
Q,
R,
S,
T,
L,
V,
W,
X,
Y,
K,
P
);
date = "2020-09-13 10:44:51 +0000";
familyName = "New Font";
fontMaster = (
{
ascender = 800;
capHeight = 700;
descender = -200;
id = "F0C25A7D-16F7-4759-829E-909D069E8C70";
visible = 1;
xHeight = 500;
}
);
glyphs = (
{
glyphname = A;
lastChange = "2020-09-13 10:55:29 +0000";
layers = (
{
layerId = "F0C25A7D-16F7-4759-829E-909D069E8C70";
paths = (
{
closed = 1;
nodes = (
"618 190 OFFCURVE",
"584 256 OFFCURVE",
"552 325 CURVE",
"485 467 OFFCURVE",
"434 616 OFFCURVE",
"348 748 CURVE",
"254 893 OFFCURVE",
"110 780 OFFCURVE",
"40 678 CURVE",
"-109 461 OFFCURVE",
"-59 143 OFFCURVE",
"-59 -125 CURVE",
"-59 -232 OFFCURVE",
"113 -232 OFFCURVE",
"113 -125 CURVE",
"113 -93 LINE",
"113 -39 OFFCURVE",
"112 15 OFFCURVE",
"112 71 CURVE",
"120 70 OFFCURVE",
"128 68 OFFCURVE",
"137 68 CURVE",
"174 67 OFFCURVE",
"214 75 OFFCURVE",
"251 81 CURVE",
"317 95 OFFCURVE",
"386 125 OFFCURVE",
"453 130 CURVE",
"454 115 OFFCURVE",
"454 131 OFFCURVE",
"455 131 CURVE",
"461 110 OFFCURVE",
"469 80 OFFCURVE",
"469 18 CURVE",
"469 -99 OFFCURVE",
"434 -214 OFFCURVE",
"551 -187 CURVE",
"629 -176 OFFCURVE",
"645 13 OFFCURVE",
"629 113 CURVE"
);
},
{
closed = 1;
nodes = (
"194 234 OFFCURVE",
"151 234 OFFCURVE",
"110 230 CURVE",
"110 259 OFFCURVE",
"112 287 OFFCURVE",
"112 315 CURVE SMOOTH",
"114 390 OFFCURVE",
"177 784 OFFCURVE",
"272 554 CURVE SMOOTH",
"310 464 OFFCURVE",
"351 372 OFFCURVE",
"392 281 CURVE",
"339 272 OFFCURVE",
"288 256 OFFCURVE",
"236 244 CURVE SMOOTH"
);
}
);
width = 600;
}
);
unicode = 0041;
},
{
glyphname = B;
lastChange = "2020-09-13 10:54:32 +0000";
layers = (
{
layerId = "F0C25A7D-16F7-4759-829E-909D069E8C70";
paths = (
{
closed = 1;
nodes = (
"584 161 OFFCURVE",
"518 249 OFFCURVE",
"429 314 CURVE",
"483 362 OFFCURVE",
"523 427 OFFCURVE",
"550 504 CURVE",
"591 618 OFFCURVE",
"504 731 OFFCURVE",
"409 777 CURVE",
"315 823 OFFCURVE",
"213 812 OFFCURVE",
"120 777 CURVE",
"22 743 OFFCURVE",
"-16 713 OFFCURVE",
"-13 583 CURVE",
"-8 448 OFFCURVE",
"-13 314 OFFCURVE",
"-10 180 CURVE",
"-6 -12 OFFCURVE",
"105 -184 OFFCURVE",
"301 -204 CURVE",
"440 -218 OFFCURVE",
"683 -173 OFFCURVE",
"621 34 CURVE"
);
},
{
closed = 1;
nodes = (
"466 594 OFFCURVE",
"329 464 OFFCURVE",
"260 402 CURVE",
"230 413 OFFCURVE",
"198 424 OFFCURVE",
"165 433 CURVE",
"164 433 OFFCURVE",
"161 433 OFFCURVE",
"160 433 CURVE",
"156 481 OFFCURVE",
"148 560 OFFCURVE",
"154 603 CURVE",
"196 625 OFFCURVE",
"233 633 OFFCURVE",
"305 621 CURVE"
);
},
{
closed = 1;
nodes = (
"166 95 OFFCURVE",
"158 159 OFFCURVE",
"158 224 CURVE",
"179 219 OFFCURVE",
"203 215 OFFCURVE",
"230 221 CURVE SMOOTH",
"234 221 OFFCURVE",
"236 222 OFFCURVE",
"241 223 CURVE SMOOTH",
"284 204 OFFCURVE",
"327 181 OFFCURVE",
"364 147 CURVE SMOOTH",
"539 -13 OFFCURVE",
"303 -107 OFFCURVE",
"196 50 CURVE SMOOTH"
);
}
);
width = 600;
}
);
unicode = 0042;
},
{
glyphname = C;
lastChange = "2020-09-13 10:54:00 +0000";
layers = (
{
layerId = "F0C25A7D-16F7-4759-829E-909D069E8C70";
paths = (
{
closed = 1;
nodes = (
"274 -112 OFFCURVE",
"168 70 OFFCURVE",
"171 218 CURVE SMOOTH",
"174 277 OFFCURVE",
"198 712 OFFCURVE",
"353 560 CURVE SMOOTH",
"438 476 OFFCURVE",
"581 599 OFFCURVE",
"496 683 CURVE SMOOTH",
"381 796 OFFCURVE",
"221 812 OFFCURVE",
"103 697 CURVE SMOOTH",
"-37 562 OFFCURVE",
"-27 386 OFFCURVE",
"-31 218 CURVE SMOOTH",
"-34 68 OFFCURVE",
"27 -88 OFFCURVE",
"175 -179 CURVE SMOOTH",
"322 -269 OFFCURVE",
"524 -94 OFFCURVE",
"588 -2 CURVE SMOOTH",
"657 95 OFFCURVE",
"480 181 OFFCURVE",
"413 85 CURVE SMOOTH"
);
}
);
width = 600;
}
);
unicode = 0043;
},
{
glyphname = D;
lastChange = "2020-09-13 10:55:45 +0000";
layers = (
{
layerId = "F0C25A7D-16F7-4759-829E-909D069E8C70";
paths = (
{
closed = 1;
nodes = (
"497 777 OFFCURVE",
"365 820 OFFCURVE",
"178 820 CURVE",
"128 820 OFFCURVE",
"92 823 OFFCURVE",
"39 788 CURVE",
"9 780 OFFCURVE",
"-17 710 OFFCURVE",
"-17 675 CURVE",
"-13 407 OFFCURVE",
"12 139 OFFCURVE",
"1 -132 CURVE",
"-2 -180 OFFCURVE",
"57 -209 OFFCURVE",
"108 -200 CURVE",
"314 -169 OFFCURVE",
"428 6 OFFCURVE",
"506 148 CURVE",
"579 279 OFFCURVE",
"686 523 OFFCURVE",
"582 663 CURVE"
);
},
{
closed = 1;
nodes = (
"365 221 OFFCURVE",
"295 61 OFFCURVE",
"176 -18 CURVE",
"177 72 OFFCURVE",
"158 643 OFFCURVE",
"178 683 CURVE SMOOTH",
"186 699 OFFCURVE",
"298 692 OFFCURVE",
"335 680 CURVE SMOOTH",
"505 620 OFFCURVE",
"440 417 OFFCURVE",
"403 318 CURVE SMOOTH"
);
}
);
width = 600;
}
);
unicode = 0044;
},
{
glyphname = E;
lastChange = "2020-09-13 10:57:12 +0000";
layers = (
{
layerId = "F0C25A7D-16F7-4759-829E-909D069E8C70";
paths = (
{
closed = 1;
nodes = (
"418 -48 OFFCURVE",
"301 -46 OFFCURVE",
"216 -42 CURVE SMOOTH",
"80 -37 OFFCURVE",
"107 -16 OFFCURVE",
"112 93 CURVE SMOOTH",
"114 98 OFFCURVE",
"114 102 OFFCURVE",
"115 108 CURVE",
"132 107 OFFCURVE",
"158 141 OFFCURVE",
"239 158 CURVE SMOOTH",
"281 167 OFFCURVE",
"331 179 OFFCURVE",
"360 216 CURVE SMOOTH",
"387 250 OFFCURVE",
"394 271 OFFCURVE",
"367 302 CURVE SMOOTH",
"322 354 OFFCURVE",
"317 349 OFFCURVE",
"239 319 CURVE SMOOTH",
"226 315 OFFCURVE",
"211 313 OFFCURVE",
"199 311 CURVE SMOOTH",
"186 308 OFFCURVE",
"173 306 OFFCURVE",
"162 304 CURVE SMOOTH",
"155 302 OFFCURVE",
"149 300 OFFCURVE",
"144 296 CURVE",
"149 323 OFFCURVE",
"157 351 OFFCURVE",
"159 380 CURVE SMOOTH",
"168 540 OFFCURVE",
"186 575 OFFCURVE",
"213 623 CURVE SMOOTH",
"230 654 OFFCURVE",
"312 653 OFFCURVE",
"331 653 CURVE SMOOTH",
"417 654 OFFCURVE",
"439 654 OFFCURVE",
"536 652 CURVE SMOOTH",
"637 650 OFFCURVE",
"675 782 OFFCURVE",
"576 804 CURVE SMOOTH",
"460 833 OFFCURVE",
"357 802 OFFCURVE",
"241 794 CURVE SMOOTH",
"163 788 OFFCURVE",
"89 749 OFFCURVE",
"60 664 CURVE SMOOTH",
"30 575 OFFCURVE",
"-4 363 OFFCURVE",
"-10 328 CURVE SMOOTH",
"-34 202 OFFCURVE",
"-74 42 OFFCURVE",
"-40 -85 CURVE SMOOTH",
"-16 -178 OFFCURVE",
"140 -192 OFFCURVE",
"216 -202 CURVE SMOOTH",
"344 -216 OFFCURVE",
"502 -188 OFFCURVE",
"599 -96 CURVE SMOOTH",
"674 -26 OFFCURVE",
"563 87 OFFCURVE",
"488 15 CURVE SMOOTH"
);
}
);
width = 600;
}
);
unicode = 0045;
},
{
glyphname = F;
lastChange = "2020-09-13 10:57:51 +0000";
layers = (
{
layerId = "F0C25A7D-16F7-4759-829E-909D069E8C70";
paths = (
{
closed = 1;
nodes = (
"291 649 OFFCURVE",
"462 551 OFFCURVE",
"573 658 CURVE SMOOTH",
"642 724 OFFCURVE",
"553 848 OFFCURVE",
"443 812 CURVE SMOOTH",
"361 785 OFFCURVE",
"235 793 OFFCURVE",
"170 766 CURVE SMOOTH",
"77 726 OFFCURVE",
"8 682 OFFCURVE",
"-44 598 CURVE SMOOTH",
"-95 517 OFFCURVE",
"-55 405 OFFCURVE",
"-36 321 CURVE SMOOTH",
"-1 172 OFFCURVE",
"34 27 OFFCURVE",
"38 -127 CURVE SMOOTH",
"42 -241 OFFCURVE",
"227 -242 OFFCURVE",
"223 -127 CURVE SMOOTH",
"221 -61 OFFCURVE",
"214 3 OFFCURVE",
"204 69 CURVE",
"219 79 OFFCURVE",
"231 94 OFFCURVE",
"238 112 CURVE SMOOTH",
"239 113 OFFCURVE",
"240 113 OFFCURVE",
"242 115 CURVE SMOOTH",
"256 124 OFFCURVE",
"288 138 OFFCURVE",
"293 140 CURVE SMOOTH",
"331 154 OFFCURVE",
"370 165 OFFCURVE",
"407 183 CURVE SMOOTH",
"453 204 OFFCURVE",
"465 265 OFFCURVE",
"442 304 CURVE SMOOTH",
"415 350 OFFCURVE",
"361 358 OFFCURVE",
"316 338 CURVE SMOOTH",
"314 338 OFFCURVE",
"314 337 OFFCURVE",
"314 337 CURVE SMOOTH",
"312 337 OFFCURVE",
"310 336 OFFCURVE",
"308 335 CURVE SMOOTH",
"297 331 OFFCURVE",
"286 327 OFFCURVE",
"275 323 CURVE SMOOTH",
"241 311 OFFCURVE",
"208 298 OFFCURVE",
"177 284 CURVE SMOOTH",
"170 281 OFFCURVE",
"164 278 OFFCURVE",
"158 274 CURVE",
"127 386 OFFCURVE",
"101 519 OFFCURVE",
"174 569 CURVE SMOOTH"
);
}
);
width = 600;
}
);
unicode = 0046;
},
{
glyphname = G;
lastChange = "2020-09-13 10:58:52 +0000";
layers = (
{
layerId = "F0C25A7D-16F7-4759-829E-909D069E8C70";
paths = (
{
closed = 1;
nodes = (
"549 156 OFFCURVE",
"511 211 OFFCURVE",
"456 227 CURVE SMOOTH",
"404 242 OFFCURVE",
"351 247 OFFCURVE",
"303 247 CURVE SMOOTH",
"195 247 OFFCURVE",
"161 79 OFFCURVE",
"269 79 CURVE SMOOTH",
"317 79 OFFCURVE",
"365 79 OFFCURVE",
"404 65 CURVE SMOOTH",
"411 63 OFFCURVE",
"439 59 OFFCURVE",
"454 30 CURVE",
"470 -54 OFFCURVE",
"369 -25 OFFCURVE",
"268 -29 CURVE SMOOTH",
"131 -34 OFFCURVE",
"30 30 OFFCURVE",
"51 207 CURVE SMOOTH",
"72 384 OFFCURVE",
"268 803 OFFCURVE",
"446 539 CURVE SMOOTH",
"509 446 OFFCURVE",
"652 536 OFFCURVE",
"588 630 CURVE SMOOTH",
"488 779 OFFCURVE",
"273 900 OFFCURVE",
"128 734 CURVE SMOOTH",
"-27 559 OFFCURVE",
"-146 304 OFFCURVE",
"-103 53 CURVE SMOOTH",
"-88 -32 OFFCURVE",
"-21 -138 OFFCURVE",
"52 -172 CURVE SMOOTH",
"151 -214 OFFCURVE",
"321 -243 OFFCURVE",
"423 -202 CURVE SMOOTH",
"538 -158 OFFCURVE",
"712 28 OFFCURVE",
"557 150 CURVE SMOOTH"
);
}
);
width = 600;
}
);
unicode = 0047;
},
{
glyphname = H;
lastChange = "2020-09-13 10:59:44 +0000";
layers = (
{
layerId = "F0C25A7D-16F7-4759-829E-909D069E8C70";
paths = (
{
closed = 1;
nodes = (
"513 831 OFFCURVE",
"474 879 OFFCURVE",
"428 873 CURVE SMOOTH",
"387 868 OFFCURVE",
"365 859 OFFCURVE",
"332 830 CURVE SMOOTH",
"296 798 OFFCURVE",
"393 360 OFFCURVE",
"420 204 CURVE",
"332 193 OFFCURVE",
"223 156 OFFCURVE",
"147 195 CURVE SMOOTH",
"141 198 OFFCURVE",
"135 200 OFFCURVE",
"128 202 CURVE",
"127 221 OFFCURVE",
"124 389 OFFCURVE",
"123 408 CURVE SMOOTH",
"111 619 OFFCURVE",
"141 686 OFFCURVE",
"74 760 CURVE SMOOTH",
"11 830 OFFCURVE",
"-82 740 OFFCURVE",
"-60 625 CURVE SMOOTH",
"-56 606 OFFCURVE",
"-50 448 OFFCURVE",
"-47 429 CURVE SMOOTH",
"-42 393 OFFCURVE",
"-39 210 OFFCURVE",
"-36 175 CURVE SMOOTH",
"-29 66 OFFCURVE",
"-11 -48 OFFCURVE",
"32 -148 CURVE SMOOTH",
"74 -248 OFFCURVE",
"220 -164 OFFCURVE",
"178 -66 CURVE SMOOTH",
"167 -38 OFFCURVE",
"158 -9 OFFCURVE",
"151 21 CURVE",
"248 5 OFFCURVE",
"344 34 OFFCURVE",
"445 38 CURVE",
"452 -29 OFFCURVE",
"459 -96 OFFCURVE",
"460 -165 CURVE SMOOTH",
"462 -273 OFFCURVE",
"629 -273 OFFCURVE",
"628 -165 CURVE SMOOTH",
"622 155 OFFCURVE",
"513 468 OFFCURVE",
"513 790 CURVE SMOOTH"
);
}
);
width = 600;
}
);
unicode = 0048;
},
{
glyphname = I;
lastChange = "2020-09-13 11:00:19 +0000";
layers = (
{
layerId = "F0C25A7D-16F7-4759-829E-909D069E8C70";
paths = (
{
closed = 1;
nodes = (
"438 454 OFFCURVE",
"414 610 OFFCURVE",
"411 768 CURVE SMOOTH",
"408 880 OFFCURVE",
"191 881 OFFCURVE",
"197 718 CURVE SMOOTH",
"201 620 LINE SMOOTH",
"207 476 OFFCURVE",
"225 403 OFFCURVE",
"237 298 CURVE SMOOTH",
"254 146 OFFCURVE",
"243 9 OFFCURVE",
"230 -140 CURVE SMOOTH",
"221 -252 OFFCURVE",
"431 -251 OFFCURVE",
"441 -140 CURVE SMOOTH",
"453 12 OFFCURVE",
"468 142 OFFCURVE",
"453 298 CURVE SMOOTH"
);
}
);
width = 600;
}
);
unicode = 0049;
},
{
glyphname = J;
lastChange = "2020-09-13 11:00:50 +0000";
layers = (
{
layerId = "F0C25A7D-16F7-4759-829E-909D069E8C70";
paths = (
{
closed = 1;
nodes = (
"402 848 OFFCURVE",
"236 808 OFFCURVE",
"268 712 CURVE SMOOTH",
"333 515 OFFCURVE",
"388 344 OFFCURVE",
"388 137 CURVE SMOOTH",
"388 71 OFFCURVE",
"315 -161 OFFCURVE",
"232 -12 CURVE SMOOTH",
"210 26 OFFCURVE",
"200 50 OFFCURVE",
"158 72 CURVE SMOOTH",
"66 120 OFFCURVE",
"-16 -3 OFFCURVE",
"62 -57 CURVE SMOOTH",
"75 -77 OFFCURVE",
"85 -99 OFFCURVE",
"95 -121 CURVE SMOOTH",
"123 -160 OFFCURVE",
"163 -202 OFFCURVE",
"211 -214 CURVE SMOOTH",
"298 -233 OFFCURVE",
"432 -233 OFFCURVE",
"479 -148 CURVE SMOOTH",
"643 144 OFFCURVE",
"533 460 OFFCURVE",
"435 752 CURVE SMOOTH"
);
}
);
width = 600;
}
);
unicode = 004A;
},
{
glyphname = K;
lastChange = "2020-09-13 11:09:48 +0000";
layers = (
{
layerId = "F0C25A7D-16F7-4759-829E-909D069E8C70";
paths = (
{
closed = 1;
nodes = (
"637 53 OFFCURVE",
"588 106 OFFCURVE",
"521 149 CURVE SMOOTH",
"470 181 OFFCURVE",
"412 202 OFFCURVE",
"356 228 CURVE",
"410 283 OFFCURVE",
"460 340 OFFCURVE",
"505 401 CURVE SMOOTH",
"581 506 OFFCURVE",
"598 612 OFFCURVE",
"599 734 CURVE SMOOTH",
"599 836 OFFCURVE",
"419 836 OFFCURVE",
"419 734 CURVE SMOOTH",
"418 567 OFFCURVE",
"335 447 OFFCURVE",
"222 333 CURVE",
"211 458 OFFCURVE",
"197 583 OFFCURVE",
"192 709 CURVE SMOOTH",
"187 811 OFFCURVE",
"8 813 OFFCURVE",
"12 709 CURVE SMOOTH",
"24 440 OFFCURVE",
"73 173 OFFCURVE",
"53 -97 CURVE SMOOTH",
"45 -200 OFFCURVE",
"225 -199 OFFCURVE",
"232 -97 CURVE SMOOTH",
"237 -29 OFFCURVE",
"238 39 OFFCURVE",
"236 106 CURVE",
"288 77 OFFCURVE",
"343 54 OFFCURVE",
"396 26 CURVE SMOOTH",
"455 -3 OFFCURVE",
"490 -37 OFFCURVE",
"525 -88 CURVE SMOOTH",
"586 -175 OFFCURVE",
"743 -97 OFFCURVE",
"681 -9 CURVE SMOOTH"
);
}
);
width = 600;
}
);
unicode = 004B;
},
{
glyphname = L;
lastChange = "2020-09-13 11:07:12 +0000";
layers = (
{
layerId = "F0C25A7D-16F7-4759-829E-909D069E8C70";
paths = (
{
closed = 1;
nodes = (
"472 40 OFFCURVE",
"422 28 OFFCURVE",
"358 7 CURVE SMOOTH",
"260 -36 OFFCURVE",
"172 -68 OFFCURVE",
"172 51 CURVE SMOOTH",
"172 275 OFFCURVE",
"223 490 OFFCURVE",
"223 714 CURVE SMOOTH",
"235 811 OFFCURVE",
"60 811 OFFCURVE",
"60 714 CURVE SMOOTH",
"49 457 OFFCURVE",
"-51 158 OFFCURVE",
"12 -101 CURVE SMOOTH",
"72 -325 OFFCURVE",
"422 -111 OFFCURVE",
"547 -101 CURVE SMOOTH",
"659 -88 OFFCURVE",
"659 51 OFFCURVE",
"547 51 CURVE SMOOTH"
);
}
);
width = 600;
}
);
unicode = 004C;
},
{
glyphname = M;
lastChange = "2020-09-13 11:02:09 +0000";
layers = (
{
layerId = "F0C25A7D-16F7-4759-829E-909D069E8C70";
paths = (
{
closed = 1;
nodes = (
"745 187 OFFCURVE",
"884 564 OFFCURVE",
"608 784 CURVE SMOOTH",
"569 816 OFFCURVE",
"493 819 OFFCURVE",
"468 768 CURVE SMOOTH",
"429 685 OFFCURVE",
"407 585 OFFCURVE",
"401 495 CURVE SMOOTH",
"397 475 OFFCURVE",
"396 423 OFFCURVE",
"392 372 CURVE",
"321 540 OFFCURVE",
"278 730 OFFCURVE",
"102 788 CURVE SMOOTH",
"61 802 OFFCURVE",
"3 771 OFFCURVE",
"-6 730 CURVE SMOOTH",
"-25 621 OFFCURVE",
"-8 506 OFFCURVE",
"1 397 CURVE SMOOTH",
"19 154 OFFCURVE",
"-73 -157 OFFCURVE",
"57 -190 CURVE SMOOTH",
"111 -202 OFFCURVE",
"167 -164 OFFCURVE",
"167 -111 CURVE SMOOTH",
"167 18 OFFCURVE",
"192 208 OFFCURVE",
"183 336 CURVE SMOOTH",
"181 366 OFFCURVE",
"176 397 OFFCURVE",
"174 429 CURVE",
"215 327 OFFCURVE",
"256 219 OFFCURVE",
"327 133 CURVE SMOOTH",
"354 101 OFFCURVE",
"405 73 OFFCURVE",
"448 101 CURVE SMOOTH",
"572 187 OFFCURVE",
"567 357 OFFCURVE",
"582 509 CURVE",
"615 402 OFFCURVE",
"617 275 OFFCURVE",
"621 180 CURVE SMOOTH",
"628 62 OFFCURVE",
"585 -47 OFFCURVE",
"631 -157 CURVE SMOOTH",
"673 -254 OFFCURVE",
"823 -213 OFFCURVE",
"804 -116 CURVE SMOOTH"
);
}
);
width = 600;
}
);
unicode = 004D;
},
{
glyphname = N;
lastChange = "2020-09-13 11:02:26 +0000";
layers = (
{
layerId = "F0C25A7D-16F7-4759-829E-909D069E8C70";
paths = (
{
closed = 1;
nodes = (
"603 834 OFFCURVE",
"443 834 OFFCURVE",
"443 704 CURVE SMOOTH",
"444 563 OFFCURVE",
"452 423 OFFCURVE",
"455 282 CURVE SMOOTH",
"456 216 OFFCURVE",
"451 153 OFFCURVE",
"445 88 CURVE SMOOTH",
"444 77 OFFCURVE",
"442 67 OFFCURVE",
"441 57 CURVE",
"424 83 OFFCURVE",
"408 109 OFFCURVE",
"394 138 CURVE SMOOTH",
"326 263 OFFCURVE",
"264 410 OFFCURVE",
"223 553 CURVE SMOOTH",
"199 635 OFFCURVE",
"180 732 OFFCURVE",
"113 777 CURVE SMOOTH",
"69 805 OFFCURVE",
"5 780 OFFCURVE",
"-5 715 CURVE SMOOTH",
"-41 479 OFFCURVE",
"7 241 OFFCURVE",
"-5 0 CURVE",
"-34 -59 OFFCURVE",
"-13 -141 OFFCURVE",
"61 -141 CURVE SMOOTH",
"73 -141 LINE SMOOTH",
"120 -141 OFFCURVE",
"148 -111 OFFCURVE",
"154 -57 CURVE SMOOTH",
"164 53 OFFCURVE",
"162 148 OFFCURVE",
"158 259 CURVE",
"167 236 OFFCURVE",
"177 209 OFFCURVE",
"187 186 CURVE SMOOTH",
"236 69 OFFCURVE",
"332 -184 OFFCURVE",
"455 -197 CURVE SMOOTH",
"702 -224 OFFCURVE",
"606 538 OFFCURVE",
"605 704 CURVE SMOOTH"
);
}
);
width = 600;
}
);
unicode = 004E;
},
{
glyphname = O;
lastChange = "2020-09-13 11:02:44 +0000";
layers = (
{
layerId = "F0C25A7D-16F7-4759-829E-909D069E8C70";
paths = (
{
closed = 1;
nodes = (
"104 798 OFFCURVE",
"39 705 OFFCURVE",
"82 658 CURVE",
"77 651 OFFCURVE",
"70 643 OFFCURVE",
"63 636 CURVE",
"-23 546 OFFCURVE",
"-68 388 OFFCURVE",
"-87 268 CURVE",
"-123 35 OFFCURVE",
"11 -136 OFFCURVE",
"234 -169 CURVE",
"484 -206 OFFCURVE",
"606 2 OFFCURVE",
"624 226 CURVE",
"648 512 OFFCURVE",
"400 672 OFFCURVE",
"177 767 CURVE"
);
},
{
closed = 1;
nodes = (
"102 -43 OFFCURVE",
"33 114 OFFCURVE",
"60 285 CURVE SMOOTH",
"78 405 OFFCURVE",
"147 499 OFFCURVE",
"211 595 CURVE",
"298 554 OFFCURVE",
"374 505 OFFCURVE",
"431 412 CURVE SMOOTH",
"514 277 OFFCURVE",
"501 -15 OFFCURVE",
"297 -29 CURVE SMOOTH"
);
}
);
width = 600;
}
);
unicode = 004F;
},
{
glyphname = P;
lastChange = "2020-09-13 11:10:08 +0000";
layers = (
{
layerId = "F0C25A7D-16F7-4759-829E-909D069E8C70";
paths = (
{
closed = 1;
nodes = (
"541 529 OFFCURVE",
"514 635 OFFCURVE",
"426 719 CURVE",
"341 799 OFFCURVE",
"259 803 OFFCURVE",
"139 817 CURVE",
"113 821 OFFCURVE",
"83 815 OFFCURVE",
"61 801 CURVE",
"30 794 OFFCURVE",
"2 772 OFFCURVE",
"3 735 CURVE",
"8 529 OFFCURVE",
"39 327 OFFCURVE",
"76 125 CURVE",
"51 93 OFFCURVE",
"66 48 OFFCURVE",
"94 25 CURVE",
"108 -38 OFFCURVE",
"119 -101 OFFCURVE",
"133 -165 CURVE",
"147 -240 OFFCURVE",
"297 -224 OFFCURVE",
"289 -148 CURVE",
"282 -75 OFFCURVE",
"274 -3 OFFCURVE",
"267 68 CURVE",
"347 93 OFFCURVE",
"428 107 OFFCURVE",
"495 160 CURVE",
"567 219 OFFCURVE",
"542 348 OFFCURVE",
"542 419 CURVE"
);
},
{
closed = 1;
nodes = (
"255 239 OFFCURVE",
"253 256 OFFCURVE",
"253 272 CURVE SMOOTH",
"247 393 OFFCURVE",
"192 539 OFFCURVE",
"191 666 CURVE",
"314 631 OFFCURVE",
"375 556 OFFCURVE",
"383 419 CURVE SMOOTH",
"389 307 OFFCURVE",
"333 262 OFFCURVE",
"255 223 CURVE"
);
}
);
width = 600;
}
);
unicode = 0050;
},
{
glyphname = Q;
lastChange = "2020-09-13 11:04:35 +0000";
layers = (
{
layerId = "F0C25A7D-16F7-4759-829E-909D069E8C70";
paths = (
{
closed = 1;
nodes = (
"778 46 OFFCURVE",
"723 78 OFFCURVE",
"670 114 CURVE",
"726 266 OFFCURVE",
"714 422 OFFCURVE",
"660 546 CURVE",
"576 742 OFFCURVE",
"374 837 OFFCURVE",
"182 798 CURVE",
"170 807 OFFCURVE",
"156 811 OFFCURVE",
"138 811 CURVE",
"78 811 OFFCURVE",
"44 775 OFFCURVE",
"17 730 CURVE",
"-3 715 OFFCURVE",
"-12 692 OFFCURVE",
"-12 671 CURVE",
"-16 660 OFFCURVE",
"-21 648 OFFCURVE",
"-27 639 CURVE",
"-90 502 OFFCURVE",
"-107 372 OFFCURVE",
"-62 228 CURVE",
"-6 50 OFFCURVE",
"259 -264 OFFCURVE",
"478 -146 CURVE",
"519 -124 OFFCURVE",
"553 -93 OFFCURVE",
"582 -52 CURVE",
"650 -97 OFFCURVE",
"723 -127 OFFCURVE",
"791 -139 CURVE",
"885 -157 OFFCURVE",
"939 19 OFFCURVE",
"844 35 CURVE"
);
},
{
closed = 1;
nodes = (
"47 306 OFFCURVE",
"51 381 OFFCURVE",
"73 458 CURVE SMOOTH",
"86 493 OFFCURVE",
"101 527 OFFCURVE",
"118 560 CURVE SMOOTH",
"122 566 OFFCURVE",
"124 569 OFFCURVE",
"125 575 CURVE",
"260 639 OFFCURVE",
"402 598 OFFCURVE",
"488 474 CURVE SMOOTH",
"542 399 OFFCURVE",
"546 310 OFFCURVE",
"514 206 CURVE",
"490 227 OFFCURVE",
"469 247 OFFCURVE",
"453 267 CURVE SMOOTH",
"401 336 OFFCURVE",
"262 240 OFFCURVE",
"317 171 CURVE SMOOTH",
"350 127 OFFCURVE",
"393 84 OFFCURVE",
"442 45 CURVE",
"342 -121 OFFCURVE",
"124 162 OFFCURVE",
"88 233 CURVE SMOOTH"
);
}
);
width = 600;
}
);
unicode = 0051;
},
{
glyphname = R;
lastChange = "2020-09-13 11:04:56 +0000";
layers = (
{
layerId = "F0C25A7D-16F7-4759-829E-909D069E8C70";
paths = (
{
closed = 1;
nodes = (
"515 -12 OFFCURVE",
"465 34 OFFCURVE",
"409 70 CURVE",
"398 76 OFFCURVE",
"361 90 OFFCURVE",
"323 103 CURVE",
"370 120 OFFCURVE",
"420 133 OFFCURVE",
"454 150 CURVE",
"534 189 OFFCURVE",
"589 294 OFFCURVE",
"606 379 CURVE",
"646 569 OFFCURVE",
"472 732 OFFCURVE",
"321 797 CURVE",
"171 861 OFFCURVE",
"70 645 OFFCURVE",
"37 530 CURVE",
"7 431 OFFCURVE",
"-1 333 OFFCURVE",
"14 230 CURVE",
"24 158 OFFCURVE",
"39 99 OFFCURVE",
"57 29 CURVE",
"69 -14 OFFCURVE",
"101 -98 OFFCURVE",
"101 -98 CURVE",
"101 -205 OFFCURVE",
"234 -205 OFFCURVE",
"234 -98 CURVE",
"234 -105 LINE",
"234 -97 OFFCURVE",
"242 -91 OFFCURVE",
"241 -84 CURVE",
"239 -62 OFFCURVE",
"237 -41 OFFCURVE",
"231 -20 CURVE",
"326 -56 OFFCURVE",
"406 -133 OFFCURVE",
"495 -185 CURVE",
"580 -237 OFFCURVE",
"658 -98 OFFCURVE",
"573 -48 CURVE"
);
},
{
closed = 1;
nodes = (
"269 675 OFFCURVE",
"314 628 OFFCURVE",
"373 579 CURVE SMOOTH",
"465 506 OFFCURVE",
"482 366 OFFCURVE",
"379 288 CURVE SMOOTH",
"321 244 OFFCURVE",
"239 235 OFFCURVE",
"172 202 CURVE",
"152 335 OFFCURVE",
"167 456 OFFCURVE",
"228 587 CURVE SMOOTH"
);
}
);
width = 600;
}
);
unicode = 0052;
},
{
glyphname = S;
lastChange = "2020-09-13 11:05:47 +0000";
layers = (
{
layerId = "F0C25A7D-16F7-4759-829E-909D069E8C70";
paths = (
{
closed = 1;
nodes = (
"286 411 OFFCURVE",
"105 523 OFFCURVE",
"259 619 CURVE SMOOTH",
"327 661 OFFCURVE",
"423 619 OFFCURVE",
"434 546 CURVE SMOOTH",
"448 460 OFFCURVE",
"603 495 OFFCURVE",
"590 581 CURVE SMOOTH",
"553 821 OFFCURVE",
"148 859 OFFCURVE",
"61 632 CURVE SMOOTH",
"3 484 OFFCURVE",
"48 363 OFFCURVE",
"167 267 CURVE SMOOTH",
"275 180 OFFCURVE",
"365 164 OFFCURVE",
"407 55 CURVE SMOOTH",
"450 -56 OFFCURVE",
"364 -53 OFFCURVE",
"283 -31 CURVE SMOOTH",
"259 -25 OFFCURVE",
"144 11 OFFCURVE",
"130 33 CURVE SMOOTH",
"85 103 OFFCURVE",
"-14 8 OFFCURVE",
"31 -68 CURVE SMOOTH",
"81 -155 OFFCURVE",
"266 -200 OFFCURVE",
"358 -200 CURVE SMOOTH",
"492 -197 OFFCURVE",
"606 -138 OFFCURVE",
"623 0 CURVE SMOOTH",
"641 144 OFFCURVE",
"497 282 OFFCURVE",
"389 349 CURVE SMOOTH"
);
}
);
width = 600;
}
);
unicode = 0053;
},
{
glyphname = T;
lastChange = "2020-09-13 11:06:38 +0000";
layers = (
{
layerId = "F0C25A7D-16F7-4759-829E-909D069E8C70";
paths = (
{
closed = 1;
nodes = (
"539 853 OFFCURVE",
"450 803 OFFCURVE",
"338 800 CURVE SMOOTH",
"259 800 OFFCURVE",
"184 776 OFFCURVE",
"104 790 CURVE SMOOTH",
"63 797 OFFCURVE",
"31 799 OFFCURVE",
"-9 787 CURVE SMOOTH",
"-106 758 OFFCURVE",
"-65 614 OFFCURVE",
"34 604 CURVE SMOOTH",
"81 599 OFFCURVE",
"129 595 OFFCURVE",
"167 594 CURVE SMOOTH",
"195 593 OFFCURVE",
"224 596 OFFCURVE",
"252 599 CURVE",
"157 377 OFFCURVE",
"234 108 OFFCURVE",
"222 -125 CURVE SMOOTH",
"218 -231 OFFCURVE",
"373 -225 OFFCURVE",
"378 -119 CURVE SMOOTH",
"388 91 OFFCURVE",
"302 368 OFFCURVE",
"409 564 CURVE SMOOTH",
"418 582 OFFCURVE",
"421 600 OFFCURVE",
"418 616 CURVE",
"443 618 OFFCURVE",
"467 620 OFFCURVE",
"494 625 CURVE SMOOTH",
"548 635 OFFCURVE",
"596 669 OFFCURVE",
"650 675 CURVE SMOOTH",
"751 687 OFFCURVE",
"747 876 OFFCURVE",
"648 866 CURVE SMOOTH"
);
}
);
width = 600;
}
);
unicode = 0054;
},
{
glyphname = U;
lastChange = "2020-09-13 11:01:11 +0000";
layers = (
{
layerId = "F0C25A7D-16F7-4759-829E-909D069E8C70";
paths = (
{
closed = 1;
nodes = (
"676 3 OFFCURVE",
"657 81 OFFCURVE",
"649 104 CURVE SMOOTH",
"621 175 OFFCURVE",
"598 247 OFFCURVE",
"579 321 CURVE SMOOTH",
"571 353 OFFCURVE",
"556 402 OFFCURVE",
"542 454 CURVE",
"548 558 OFFCURVE",
"543 660 OFFCURVE",
"533 745 CURVE SMOOTH",
"523 820 OFFCURVE",
"419 829 OFFCURVE",
"390 766 CURVE SMOOTH",
"349 678 OFFCURVE",
"361 553 OFFCURVE",
"385 440 CURVE",
"374 321 OFFCURVE",
"347 201 OFFCURVE",
"302 108 CURVE SMOOTH",
"255 11 OFFCURVE",
"171 77 OFFCURVE",
"147 155 CURVE SMOOTH",
"131 210 OFFCURVE",
"123 268 OFFCURVE",
"107 323 CURVE SMOOTH",
"76 437 OFFCURVE",
"88 568 OFFCURVE",
"89 685 CURVE SMOOTH",
"90 796 OFFCURVE",
"-65 796 OFFCURVE",
"-65 685 CURVE SMOOTH",
"-67 527 OFFCURVE",
"-54 -280 OFFCURVE",
"254 -143 CURVE SMOOTH",
"361 -96 OFFCURVE",
"431 -1 OFFCURVE",
"476 113 CURVE",
"506 7 OFFCURVE",
"543 -99 OFFCURVE",
"619 -160 CURVE SMOOTH",
"699 -225 OFFCURVE",
"775 -77 OFFCURVE",
"695 -13 CURVE SMOOTH"
);
}
);
width = 600;
}
);
unicode = 0055;
},
{
glyphname = V;
lastChange = "2020-09-13 11:08:02 +0000";
layers = (
{
layerId = "F0C25A7D-16F7-4759-829E-909D069E8C70";
paths = (
{
closed = 1;
nodes = (
"700 802 OFFCURVE",
"562 854 OFFCURVE",
"530 767 CURVE SMOOTH",
"450 552 OFFCURVE",
"430 319 OFFCURVE",
"367 98 CURVE",
"352 133 OFFCURVE",
"315 239 OFFCURVE",
"298 273 CURVE SMOOTH",
"246 377 OFFCURVE",
"222 496 OFFCURVE",
"171 599 CURVE SMOOTH",
"135 668 OFFCURVE",
"122 737 OFFCURVE",
"43 780 CURVE SMOOTH",
"-37 824 OFFCURVE",
"-118 696 OFFCURVE",
"-80 626 CURVE SMOOTH",
"-75 619 OFFCURVE",
"-70 610 OFFCURVE",
"-65 602 CURVE SMOOTH",
"-70 614 OFFCURVE",
"46 305 OFFCURVE",
"80 231 CURVE SMOOTH",
"135 112 OFFCURVE",
"180 51 OFFCURVE",
"248 -113 CURVE SMOOTH",
"298 -234 OFFCURVE",
"417 -260 OFFCURVE",
"482 -151 CURVE SMOOTH",
"624 87 OFFCURVE",
"608 386 OFFCURVE",
"690 644 CURVE",
"701 656 OFFCURVE",
"700 672 OFFCURVE",
"700 691 CURVE SMOOTH",
"700 705 LINE SMOOTH"
);
}
);
width = 600;
}
);
unicode = 0056;
},
{
glyphname = W;
lastChange = "2020-09-13 11:08:21 +0000";
layers = (
{
layerId = "F0C25A7D-16F7-4759-829E-909D069E8C70";
paths = (
{
closed = 1;
nodes = (
"698 392 OFFCURVE",
"699 606 OFFCURVE",
"632 745 CURVE SMOOTH",
"583 845 OFFCURVE",
"448 756 OFFCURVE",
"497 653 CURVE SMOOTH",
"540 561 OFFCURVE",
"534 396 OFFCURVE",
"537 295 CURVE SMOOTH",
"542 180 OFFCURVE",
"534 63 OFFCURVE",
"533 -57 CURVE SMOOTH",
"534 44 OFFCURVE",
"405 141 OFFCURVE",
"360 221 CURVE SMOOTH",
"331 278 OFFCURVE",
"320 316 OFFCURVE",
"271 352 CURVE SMOOTH",
"237 379 OFFCURVE",
"183 360 OFFCURVE",
"164 319 CURVE SMOOTH",
"140 266 OFFCURVE",
"142 219 OFFCURVE",
"132 160 CURVE SMOOTH",
"129 133 OFFCURVE",
"127 103 OFFCURVE",
"123 76 CURVE",
"98 171 OFFCURVE",
"89 262 OFFCURVE",
"86 364 CURVE SMOOTH",
"84 440 OFFCURVE",
"62 585 OFFCURVE",
"89 653 CURVE SMOOTH",
"101 691 OFFCURVE",
"102 732 OFFCURVE",
"73 762 CURVE SMOOTH",
"71 769 OFFCURVE",
"68 771 OFFCURVE",
"62 777 CURVE SMOOTH",
"-1 851 OFFCURVE",
"-94 756 OFFCURVE",
"-66 676 CURVE",
"-83 576 OFFCURVE",
"-71 464 OFFCURVE",
"-71 364 CURVE SMOOTH",
"-70 213 OFFCURVE",
"-56 35 OFFCURVE",
"10 -100 CURVE SMOOTH",
"50 -180 OFFCURVE",
"161 -198 OFFCURVE",
"217 -133 CURVE SMOOTH",
"260 -83 OFFCURVE",
"268 -15 OFFCURVE",
"274 50 CURVE",
"276 48 OFFCURVE",
"277 44 OFFCURVE",
"278 42 CURVE SMOOTH",
"316 -21 OFFCURVE",
"368 -74 OFFCURVE",
"415 -124 CURVE SMOOTH",
"476 -188 OFFCURVE",
"578 -278 OFFCURVE",
"655 -188 CURVE SMOOTH",
"729 -100 OFFCURVE",
"694 128 OFFCURVE",
"696 236 CURVE SMOOTH"
);
}
);
width = 600;
}
);
unicode = 0057;
},
{
glyphname = X;
lastChange = "2020-09-13 11:08:43 +0000";
layers = (
{
layerId = "F0C25A7D-16F7-4759-829E-909D069E8C70";
paths = (
{
closed = 1;
nodes = (
"547 152 OFFCURVE",
"492 225 OFFCURVE",
"407 340 CURVE",
"471 455 OFFCURVE",
"571 601 OFFCURVE",
"582 738 CURVE SMOOTH",
"593 855 OFFCURVE",
"407 854 OFFCURVE",
"398 738 CURVE SMOOTH",
"393 675 OFFCURVE",
"333 554 OFFCURVE",
"296 493 CURVE",
"232 581 OFFCURVE",
"168 672 OFFCURVE",
"110 765 CURVE SMOOTH",
"47 865 OFFCURVE",
"-116 776 OFFCURVE",
"-54 676 CURVE SMOOTH",
"21 555 OFFCURVE",
"107 438 OFFCURVE",
"192 323 CURVE",
"132 203 OFFCURVE",
"87 65 OFFCURVE",
"60 -66 CURVE SMOOTH",
"37 -180 OFFCURVE",
"215 -227 OFFCURVE",
"239 -111 CURVE SMOOTH",
"256 -22 OFFCURVE",
"285 65 OFFCURVE",
"319 150 CURVE",
"392 50 OFFCURVE",
"462 -50 OFFCURVE",
"524 -154 CURVE SMOOTH",
"571 -232 OFFCURVE",
"708 -202 OFFCURVE",
"708 -109 CURVE SMOOTH",
"708 -62 OFFCURVE",
"655 -20 OFFCURVE",
"622 32 CURVE"
);
}
);
width = 600;
}
);
unicode = 0058;
},
{
glyphname = Y;
lastChange = "2020-09-13 11:09:30 +0000";
layers = (
{
layerId = "F0C25A7D-16F7-4759-829E-909D069E8C70";
paths = (
{
closed = 1;
nodes = (
"479 853 OFFCURVE",
"490 750 OFFCURVE",
"490 680 CURVE SMOOTH",
"490 652 OFFCURVE",
"478 585 OFFCURVE",
"467 572 CURVE SMOOTH",
"455 504 OFFCURVE",
"416 432 OFFCURVE",
"393 364 CURVE",
"393 364 OFFCURVE",
"393 364 OFFCURVE",
"345 409 CURVE SMOOTH",
"290 460 OFFCURVE",
"271 477 OFFCURVE",
"236 531 CURVE SMOOTH",
"178 613 OFFCURVE",
"121 680 OFFCURVE",
"40 640 CURVE SMOOTH",
"-41 599 OFFCURVE",
"-3 564 OFFCURVE",
"49 496 CURVE",
"73 478 OFFCURVE",
"109 423 OFFCURVE",
"121 409 CURVE SMOOTH",
"144 368 OFFCURVE",
"198 346 OFFCURVE",
"221 305 CURVE SMOOTH",
"256 264 OFFCURVE",
"271 246 OFFCURVE",
"317 206 CURVE",
"271 124 OFFCURVE",
"236 57 OFFCURVE",
"190 -11 CURVE SMOOTH",
"132 -120 OFFCURVE",
"271 -201 OFFCURVE",
"328 -106 CURVE SMOOTH",
"375 -11 OFFCURVE",
"444 84 OFFCURVE",
"478 165 CURVE SMOOTH",
"513 246 OFFCURVE",
"548 328 OFFCURVE",
"582 409 CURVE SMOOTH",
"617 504 OFFCURVE",
"721 735 OFFCURVE",
"605 789 CURVE SMOOTH"
);
}
);
width = 600;
}
);
unicode = 0059;
},
{
glyphname = Z;
lastChange = "2020-09-13 11:03:29 +0000";
layers = (
{
layerId = "F0C25A7D-16F7-4759-829E-909D069E8C70";
paths = (
{
closed = 1;
nodes = (
"524 65 OFFCURVE",
"407 36 OFFCURVE",
"288 9 CURVE SMOOTH",
"269 6 OFFCURVE",
"249 2 OFFCURVE",
"229 -3 CURVE SMOOTH",
"213 -1 OFFCURVE",
"199 0 OFFCURVE",
"186 0 CURVE",
"216 35 OFFCURVE",
"248 67 OFFCURVE",
"277 103 CURVE SMOOTH",
"353 196 OFFCURVE",
"422 297 OFFCURVE",
"482 401 CURVE SMOOTH",
"527 478 OFFCURVE",
"602 626 OFFCURVE",
"520 705 CURVE SMOOTH",
"475 748 OFFCURVE",
"399 760 OFFCURVE",
"340 760 CURVE",
"250 769 OFFCURVE",
"180 786 OFFCURVE",
"100 791 CURVE SMOOTH",
"-15 800 OFFCURVE",
"-14 622 OFFCURVE",
"100 613 CURVE SMOOTH",
"189 607 OFFCURVE",
"273 588 OFFCURVE",
"364 564 CURVE SMOOTH",
"365 564 OFFCURVE",
"366 564 OFFCURVE",
"367 564 CURVE",
"354 527 OFFCURVE",
"331 493 OFFCURVE",
"312 461 CURVE SMOOTH",
"250 357 OFFCURVE",
"177 252 OFFCURVE",
"95 162 CURVE SMOOTH",
"24 84 OFFCURVE",
"-131 -83 OFFCURVE",
"23 -171 CURVE SMOOTH",
"188 -266 OFFCURVE",
"471 -116 OFFCURVE",
"645 -107 CURVE SMOOTH",
"758 -102 OFFCURVE",
"759 76 OFFCURVE",
"645 71 CURVE SMOOTH"
);
}
);
width = 600;
}
);
unicode = 005A;
},
